<?xml version="1.0" ?><svg id="Layer_1" style="enable-background:new 0 0 120 120;" version="1.1" viewBox="0 0 120 120" xml:space="preserve" xmlns="http://www.w3.org/2000/svg" xmlns:xlink="http://www.w3.org/1999/xlink"><style type="text/css">
	.st0{fill:#424242;}
	.st1{fill:#FF957F;}
	.st2{fill:#FF9D56;}
	.st3{fill:#FFBE75;}
	.st4{fill:#FFD460;}
	.st5{fill:#FFFFFF;}
	.st6{fill:#C6EBFF;}
	.st7{fill:#F7E1AA;}
</style><g><path class="st0" d="M21.9,71.3l-2.8,0c-1.4,0-2.5-1.1-2.6-2.5L16.5,56c0-1.4,1.1-2.5,2.5-2.6l2.8,0c1.4,0,2.5,1.1,2.6,2.5   l0.1,12.8C24.4,70.2,23.3,71.3,21.9,71.3z"/><circle class="st1" cx="97.2" cy="77.4" r="4.9"/><path class="st2" d="M94.6,94.9H28.2c-2.3,0-4.1-1.9-4.1-4.1V53.7c0-5.1,4.1-9.2,9.2-9.2h44.5c11.5,0,20.9,9.4,20.9,20.9v25.4   C98.7,93.1,96.9,94.9,94.6,94.9z"/><path class="st3" d="M98.7,90.8c0,2.3-1.9,4.1-4.2,4.1H28.2c-2.3,0-4.1-1.8-4.1-4.1V69.7h74.6C98.8,70.5,98.7,90.8,98.7,90.8z"/><path class="st4" d="M101.4,85.2H23.2c-1.1,0-2.1,0.9-2.1,2.1v5.6c0,1.1,0.9,2.1,2.1,2.1h78.2c1.1,0,2.1-0.9,2.1-2.1v-5.6   C103.5,86.2,102.6,85.2,101.4,85.2z"/><g><g><circle class="st0" cx="42.2" cy="94.9" r="8.9"/><circle class="st5" cx="42.2" cy="94.9" r="4.1"/></g><g><circle class="st0" cx="80.6" cy="94.9" r="8.9"/><circle class="st5" cx="80.6" cy="94.9" r="4.1"/></g></g><g><path class="st6" d="M74,64.2h16.3c1.6,0,2.7-1.5,2.2-3C90.8,54.7,84.8,50,77.8,50H74c-1.3,0-2.3,1.1-2.3,2.3v9.5    C71.7,63.1,72.7,64.2,74,64.2z"/><path class="st6" d="M53.5,64.2h12.9c1.3,0,2.3-1.1,2.3-2.3v-9.5c0-1.3-1.1-2.3-2.3-2.3H53.5c-1.3,0-2.3,1.1-2.3,2.3v9.5    C51.1,63.1,52.2,64.2,53.5,64.2z"/><path class="st6" d="M45.9,50H34.3c-2.6,0-4.8,2.1-4.8,4.8v7.1c0,1.3,1.1,2.3,2.3,2.3h13.9c1.3,0,2.3-1.1,2.3-2.3v-9.5    C48.2,51.1,47.2,50,45.9,50z"/></g><g><rect class="st4" height="10.5" width="3.4" x="38.9" y="34"/><rect class="st4" height="10.5" width="3.4" x="66.1" y="34"/></g><path class="st7" d="M85.2,25.3c2.6,1.5,2.6,4.6,0,6.1c-9.7,5.7-22.5,9.1-36.5,9.1c-8,0-15.7-1.1-22.5-3.2c-1.8-0.5-3-2-3-3.5v-11   c0-1.6,1.2-3,3-3.5c6.9-2,14.5-3.2,22.5-3.2C62.7,16.1,75.5,19.6,85.2,25.3z"/><path class="st1" d="M23.9,82.8h4.4c0.9,0,1.6-0.7,1.6-1.6v-6.8c0-0.9-0.7-1.6-1.6-1.6h-4.4c-0.9,0-1.6,0.7-1.6,1.6v6.8   C22.2,82.1,23,82.8,23.9,82.8z"/></g></svg>